<?xml version="1.0" encoding="UTF-8"?>
<svg id="Layer_1" data-name="Layer 1" xmlns="http://www.w3.org/2000/svg" width="2120.8846" height="216.6743" viewBox="0 0 2120.8846 216.6743">
  <defs>
    <style>
      .cls-1 {
        fill: #f7f9fa;
      }
    </style>
  </defs>
  <path class="cls-1" d="M1270.2076,62.98c-4.0893-.1128-8.1796-.2227-12.2709-.3285V0h12.2709v62.98ZM1056.2226,10.6242h-11.1025v49.9622c3.6978-.027,7.4027-.025,11.1025-.0449V10.6242ZM263.0807,42.2689c2.0531-4.6974,5.2826-6.7506,9.9801-6.7506s7.9249,2.0531,9.6865,6.7506l23.0268,60.9928c12.2579-1.2343,24.5427-2.4316,36.8305-3.6259l-28.1577-74.0975c-7.0442-18.4922-20.5473-25.5383-41.0926-25.5383-20.8409,0-34.344,7.0462-41.6818,25.5383l-35.2787,89.3112c13.2435-1.465,26.508-2.9049,39.7874-4.328l26.8994-68.2526ZM1032.0014,10.6242h-11.1025v50.2089c3.7018-.0409,7.3997-.0969,11.1025-.1308V10.6242ZM516.4547,38.1587h73.9687c19.0793,0,27.5915,12.0352,27.5915,26.1255,0,4.4658-.8039,8.8696-2.5175,12.8061,12.151-.8149,24.305-1.6207,36.479-2.3827.6301-3.9565.9676-7.9449.9676-11.8914,0-31.7017-19.0793-59.2932-63.695-59.2932h-107.4299v69.2712h34.6356v-34.6356ZM798.3009,3.5231h-34.6376v65.0142c11.5389-.5552,23.0798-1.1065,34.6376-1.6088V3.5231ZM935.671,3.5231h-37.2779l-30.2338,59.2932c-.2656.5173-.5153.9736-.7759,1.4699,12.7302-.4304,25.4684-.8328,38.2186-1.1933l30.069-59.5698ZM1400.184,67.7663c4.6535.2137,9.302.4414,13.9515.6631,12.8171-18.8876,34.4589-31.3252,58.9546-31.3252,18.6559,0,36.2913,7.164,49.6566,20.1738l8.56-8.7957c-15.6721-15.2507-36.3472-23.649-58.2167-23.649-31.3152,0-58.6261,17.3568-72.9061,42.933ZM1296.9782,0h-12.2709v63.3665c4.0933.1218,8.1806.2586,12.2709.3875V0ZM1915.0207,107.4529c4.0923.4274,8.1826.8568,12.2709,1.2892V24.9352h-76.7308v12.2709h64.4599v70.2469ZM2018.8117,0h-168.2509v12.2709h168.2509V0ZM1794.4791,0h-12.2709v94.4091c4.0953.3755,8.1786.7679,12.2709,1.1484V0ZM1954.0622,111.6131V37.206h64.7495v-12.2709h-77.0204v85.3617c4.0913.4374,8.1836.8748,12.2709,1.3162ZM1627.3666,0h-12.2709v80.6313c4.0893.2996,8.1856.5822,12.2709.8868V0ZM1654.1372,0h-12.2709v82.6216c4.0933.3126,8.1796.6381,12.2709.9557V0ZM1767.7065,0h-12.2709v84.9493h-83.6851c32.0762,2.5554,64.0615,5.2776,95.9559,8.1516V0ZM1470.9492,12.2709c24.8932,0,48.4962,9.4867,66.4611,26.7107l8.4921-8.8556c-20.2597-19.4269-46.8785-30.1259-74.9533-30.1259-44.9063,0-83.5093,27.4726-99.9034,66.4911,4.3999.1847,8.8077.3465,13.2056.5392,15.4654-32.3538,48.5102-54.7595,86.6979-54.7595ZM251.3171,108.8989c13.0468-1.3811,26.1185-2.7302,39.2002-4.0673l-18.7788-46.4581-20.4215,50.5254ZM2120.8846,155.326c-55.2638-5.1488-110.8811-9.8822-166.8224-14.2002v75.5484h-12.2709v-76.4602c-4.8273-.3675-9.6675-.717-14.4997-1.0775v77.5377h-12.2709v-78.4504c-40.0331-2.9419-80.192-5.716-120.5416-8.2265v86.5591h-12.2709v-87.3609c-4.8233-.2946-9.6735-.5502-14.5017-.8378v88.3166h-12.2709v-89.0096c-22.6254-1.3271-45.2558-2.6483-67.973-3.8386h-33.3254v92.8483h-12.2709v-95.0572c-4.8313-.2337-9.6645-.4634-14.4997-.691v95.6304h-12.2709v-96.2146c-21.2114-.9726-42.4627-1.8784-63.7469-2.7332v63.3105l-1.6757,1.7735c-20.6771,21.8754-48.6341,33.9226-78.724,33.9226-58.6161,0-106.4573-46.8136-108.2118-105.0113-21.8974-.5133-43.7968-1.0266-65.7591-1.415v103.0271h-12.2709v-103.2338c-4.8243-.0809-9.6725-.1128-14.4997-.1867v103.4205h-12.2709v-103.5783c-54.9073-.7849-109.9594-1.2742-165.2222-1.2742-12.186,0-24.322.1178-36.492.1558v59.6916h103.796v11.1025h-114.8985v-70.7462c-4.3729.018-8.7478.034-13.1187.0559v83.8089h128.0171v11.1025h-139.1196v-94.8635c-44.2352.2746-88.3825.738-132.3791,1.5159,7.8051,6.2343,13.9445,15.4264,21.0276,29.2401l31.9933,62.2271h-38.7439l-30.2338-58.706c-10.8608-21.1345-17.905-24.0684-55.1829-24.0684h-19.0793v82.7744h-34.6376v-88.5053c-47.4068,1.3581-94.6588,2.9918-141.727,4.9321-3.3513,1.7146-6.9713,3.1955-10.9657,4.32l46.0836,79.2533h-38.4523l-45.2028-76.611h-51.6618c-3.2275,0-4.989,1.4679-4.989,4.991v71.6199h-34.6376v-76.9325c-42.5316,2.2908-84.8764,4.8562-127.0775,7.6233l26.3382,69.3092h-38.4523l-25.2447-66.8676c-7.87.5432-15.717,1.1164-23.5741,1.6767l-22.3618,55.3207-21.0576-52.0932c-8.9205.6721-17.876,1.2972-26.7796,1.9902l-23.637,59.9732h-38.1587l22.4297-56.7827c-61.9327,5.0559-123.4585,10.6222-184.5354,16.6967,351.8537-44.9782,718.5284-87.0773,1092.7146-87.0773,351.3651,0,696.105,39.8304,1028.17,80.8351ZM1539.078,117.1314c-45.4944-1.7765-91.1137-3.3413-136.9187-4.5736,2.2219,37.2759,33.1087,66.9555,70.9309,66.9555,14.0843,0,27.5775-4.0583,39.2172-11.7636v-32.3907l-38.2865-.0539.016-12.2709,50.5414.0699v50.9848l-2.5325,1.8374c-14.304,10.3735-31.2324,15.8578-48.9556,15.8578-44.7155,0-81.1916-35.3786-83.2407-79.5958-4.9301-.1278-9.8902-.1987-14.8253-.3196,1.8854,51.3063,44.1653,92.4758,95.925,92.4758,25.8758,0,49.9742-10.048,68.1288-28.3484v-58.8648Z"/>
</svg>